<svg id="Layer_1" enable-background="new 0 0 512 512" height="512" viewBox="0 0 512 512" width="512" xmlns="http://www.w3.org/2000/svg"><path d="m384.113 200.608c-66.53-75.616-189.628-75.694-256.227 0-30.879 35.096-47.886 83.179-47.886 135.392v16c0 4.418 3.582 8 8 8s8-3.582 8-8c0-26.467 21.532-48 48-48s48 21.533 48 48c0 4.418 3.582 8 8 8s8-3.582 8-8c0-23.741 17.328-43.5 40-47.32v55.32c0 4.418 3.582 8 8 8s8-3.582 8-8v-55.32c22.672 3.821 40 23.579 40 47.32 0 4.418 3.582 8 8 8s8-3.582 8-8c0-26.467 21.532-48 48-48s48 21.533 48 48c0 4.418 3.582 8 8 8s8-3.582 8-8v-16c0-52.213-17.007-100.296-47.887-135.392zm-286.288 107.12c8.546-65.202 47.475-120.975 108.765-140.359-9.111 11.059-14.59 25.217-14.59 40.631v101.724c-24.83-28.159-68.208-29.069-94.175-1.996zm110.175 1.996v-101.724c0-26.467 21.533-48 48-48s48 21.533 48 48v101.724c-25.565-28.992-70.481-28.939-96 0zm112 0v-101.724c0-15.414-5.478-29.572-14.59-40.632 61.337 19.399 100.221 75.171 108.765 140.359-25.986-27.092-69.364-26.14-94.175 1.997z"/><path d="m256 416c-4.418 0-8 3.582-8 8v48c0 13.234-10.767 24-24 24s-24-10.766-24-24c0-4.418-3.582-8-8-8s-8 3.582-8 8c0 22.056 17.944 40 40 40s40-17.944 40-40v-48c0-4.418-3.582-8-8-8z"/><path d="m112 176c4.418 0 8-3.581 8-8v-160c0-4.418-3.582-8-8-8s-8 3.582-8 8v160c0 4.419 3.582 8 8 8z"/><path d="m400 176c4.418 0 8-3.581 8-8v-160c0-4.418-3.582-8-8-8s-8 3.582-8 8v160c0 4.419 3.582 8 8 8z"/><path d="m160 144c4.418 0 8-3.581 8-8v-96c0-4.418-3.582-8-8-8s-8 3.582-8 8v96c0 4.419 3.582 8 8 8z"/><path d="m352 144c4.418 0 8-3.581 8-8v-96c0-4.418-3.582-8-8-8s-8 3.582-8 8v96c0 4.419 3.582 8 8 8z"/><path d="m208 112c4.418 0 8-3.581 8-8v-96c0-4.418-3.582-8-8-8s-8 3.582-8 8v96c0 4.419 3.582 8 8 8z"/><path d="m256 96c4.418 0 8-3.581 8-8v-80c0-4.418-3.582-8-8-8s-8 3.582-8 8v80c0 4.419 3.582 8 8 8z"/><path d="m304 112c4.418 0 8-3.581 8-8v-96c0-4.418-3.582-8-8-8s-8 3.582-8 8v96c0 4.419 3.582 8 8 8z"/><circle cx="256" cy="120" r="8"/><circle cx="256" cy="392" r="8"/></svg>