<svg id="Layer_1" enable-background="new 0 0 512 512" height="512" viewBox="0 0 512 512" width="512" xmlns="http://www.w3.org/2000/svg"><path d="m208 56c0-13.233-10.767-24-24-24s-24 10.767-24 24v317.389c-19.352 9.185-32 28.857-32 50.611 0 30.879 25.121 56 56 56s56-25.121 56-56c0-21.754-12.648-41.426-32-50.611zm-16 184h-16v-48h16zm0-64h-16v-48h16zm-16 80h16v48h-16zm8-208c4.411 0 8 3.589 8 8v56h-16v-56c0-4.411 3.589-8 8-8zm40 376c0 22.056-17.944 40-40 40s-40-17.944-40-40c0-16.927 10.717-32.088 26.666-37.727 3.197-1.13 5.334-4.152 5.334-7.543v-58.73h16v58.73c0 3.391 2.137 6.413 5.334 7.543 15.949 5.639 26.666 20.8 26.666 37.727z"/><path d="m240 356.108v-300.108c0-30.879-25.121-56-56-56s-56 25.121-56 56v160c0 4.418 3.582 8 8 8s8-3.582 8-8v-160c0-22.056 17.944-40 40-40s40 17.944 40 40v303.99c0 2.516 1.184 4.885 3.194 6.396 18.307 13.756 28.806 34.755 28.806 57.614 0 39.701-32.299 72-72 72s-72-32.299-72-72c0-22.859 10.499-43.858 28.806-57.614 2.011-1.511 3.194-3.88 3.194-6.396v-79.99c0-4.418-3.582-8-8-8s-8 3.582-8 8v76.108c-20.388 16.793-32 41.314-32 67.892 0 48.523 39.477 88 88 88s88-39.477 88-88c0-26.578-11.612-51.099-32-67.892z"/><path d="m141.66 253.66c3.127-3.13 3.102-8.216 0-11.32-3.114-3.114-8.203-3.117-11.32 0-3.114 3.114-3.117 8.203 0 11.32 3.112 3.11 8.197 3.121 11.32 0z"/><path d="m296 32c-13.233 0-24 10.767-24 24s10.767 24 24 24 24-10.767 24-24-10.767-24-24-24zm0 32c-4.411 0-8-3.589-8-8s3.589-8 8-8 8 3.589 8 8-3.589 8-8 8z"/><path d="m408 128c-4.418 0-8 3.582-8 8 0 13.233-10.767 24-24 24s-24-10.767-24-24v-64c0-13.233 10.767-24 24-24s24 10.767 24 24c0 4.418 3.582 8 8 8s8-3.582 8-8c0-22.056-17.944-40-40-40s-40 17.944-40 40v64c0 22.056 17.944 40 40 40s40-17.944 40-40c0-4.418-3.582-8-8-8z"/></svg>